<?xml version="1.0" encoding="UTF-8"?>
<svg version="1.1" xmlns="http://www.w3.org/2000/svg" width="2130" height="463">
<path d="M0 0 C5.94 0 11.88 0 18 0 C18 1.65 18 3.3 18 5 C18.97675847 4.99585193 18.97675847 4.99585193 19.97324944 4.99162006 C35.94672117 4.92485835 51.92014322 4.87547868 67.89372063 4.84456348 C75.61897726 4.82920908 83.34413979 4.80834354 91.06933594 4.77368164 C97.81635205 4.74342359 104.56329991 4.72434246 111.31038201 4.71773452 C114.87045841 4.7138826 118.43033987 4.70508164 121.99035263 4.68280983 C160.83513648 4.44966966 200.56595651 8.63582081 235 28 C236.4540625 28.81210937 236.4540625 28.81210937 237.9375 29.640625 C273.17979686 50.7450237 293.9716041 88.97497126 303.97265625 127.69921875 C306.94817626 139.81875123 309.1116722 152.08584413 309.23828125 164.58203125 C309.2480751 165.38559052 309.25786896 166.18914978 309.26795959 167.01705933 C309.61940176 203.39777487 304.59153517 236.21833776 288 269 C288.70125 269.2475 289.4025 269.495 290.125 269.75 C293.37002459 271.16088026 296.10316737 272.97895398 299 275 C294.47672097 284.44640592 287.7020071 292.39269488 281.01171875 300.37109375 C277.47862718 304.66765798 274.788124 309.12279866 272.25 314.0625 C265.0332039 328.05817553 255.65711138 340.44879169 245 352 C244.46536133 352.57991699 243.93072266 353.15983398 243.37988281 353.75732422 C224.26597998 374.22037731 201.36901257 388.72677864 175 398 C173.94594971 398.37463379 173.94594971 398.37463379 172.87060547 398.75683594 C145.73403339 408.16557288 117.70041791 407.61758923 89.3704114 407.57023358 C84.87594643 407.56506996 80.38153519 407.57245686 75.88707578 407.57970566 C65.29820291 407.59658458 54.70947467 407.59324934 44.12060547 407.57641602 C33.20402542 407.55938698 22.28784212 407.57550323 11.37130511 407.6076389 C1.96358338 407.63428105 -7.44401438 407.64162891 -16.85177004 407.63312382 C-22.45692786 407.62819357 -28.0618454 407.6304203 -33.66697311 407.65091133 C-38.91555783 407.66919182 -44.16356387 407.66340397 -49.412117 407.63871193 C-51.33949364 407.63368557 -53.26691395 407.6372408 -55.19425583 407.64986038 C-57.81779085 407.66568656 -60.43939374 407.65094266 -63.06283569 407.62818909 C-63.83079763 407.64002482 -64.59875956 407.65186054 -65.38999307 407.66405493 C-67.51474571 407.62641239 -67.51474571 407.62641239 -71 407 C-74.46740586 402.94917281 -74.3680156 399.05416387 -74.1796875 393.9453125 C-74.16144928 393.12513641 -74.14321106 392.30496033 -74.12442017 391.45993042 C-74.05737293 388.68094592 -73.96650164 385.90327987 -73.875 383.125 C-73.82021857 381.12241607 -73.76620639 379.11981098 -73.71289062 377.1171875 C-73.0868574 354.97397148 -72.06290502 332.84152525 -71.09399414 310.71118164 C-70.39265505 294.66437153 -69.71730111 278.62017764 -69.3125 262.5625 C-69.29380859 261.84360596 -69.27511719 261.12471191 -69.25585938 260.3840332 C-68.88207519 245.65935912 -68.92859393 230.9636247 -69.3671875 216.2421875 C-69.40669812 214.86601173 -69.44605623 213.48983157 -69.48527527 212.11364746 C-69.59022656 208.45744211 -69.69842009 204.80133987 -69.80751419 201.14525604 C-69.87567868 198.85216902 -69.94284799 196.55905479 -70.00973511 194.26593018 C-70.57047386 175.06891855 -71.19838118 155.87625411 -71.93826294 136.68521118 C-72.06163617 133.39801615 -72.17578059 130.11062959 -72.28686523 126.82299805 C-72.61068925 117.38113374 -72.97369095 107.95533415 -73.60346985 98.52819824 C-73.86318098 94.52391621 -74.07302423 90.51787109 -74.27511597 86.51031494 C-74.38166439 84.65812241 -74.51185874 82.80710752 -74.66799927 80.95843506 C-75.1345906 75.40200839 -75.37010497 70.43829968 -74 65 C-70.18952519 60.76617856 -66.01633411 58.59157616 -61 56 C-59.42011724 54.86988177 -57.86687906 53.70064728 -56.35546875 52.48046875 C-55.66799561 51.93986816 -54.98052246 51.39926758 -54.2722168 50.84228516 C-53.58426025 50.29620605 -52.89630371 49.75012695 -52.1875 49.1875 C-46.56549687 44.77110487 -40.91910461 40.39832784 -35.1875 36.125 C-26.11506208 29.35864247 -17.12201324 22.48889836 -8.12792969 15.61889648 C-7.42571289 15.08466064 -6.72349609 14.5504248 -6 14 C-5.29004883 13.43547119 -4.58009766 12.87094238 -3.84863281 12.28930664 C-2 11 -2 11 0 11 C0 7.37 0 3.74 0 0 Z " fill="#242021" transform="translate(77,26)"/>
<path d="M0 0 C5.94 0 11.88 0 18 0 C17.67 113.52 17.34 227.04 17 344 C154.86643122 354.0035329 154.86643122 354.0035329 259.125 298.1875 C264.95819016 292.22195221 269.98057327 285.64882669 275 279 C275.44891602 278.40703125 275.89783203 277.8140625 276.36035156 277.203125 C278.92289926 273.81388855 281.46865039 270.41263429 284 267 C288.1030686 268.2249741 291.36438139 269.67820521 294.875 272.125 C295.65617187 272.66382813 296.43734375 273.20265625 297.2421875 273.7578125 C298.11230469 274.37269531 298.11230469 274.37269531 299 275 C294.47672097 284.44640592 287.7020071 292.39269488 281.01171875 300.37109375 C277.47862718 304.66765798 274.788124 309.12279866 272.25 314.0625 C265.0332039 328.05817553 255.65711138 340.44879169 245 352 C244.46536133 352.57991699 243.93072266 353.15983398 243.37988281 353.75732422 C224.26597998 374.22037731 201.36901257 388.72677864 175 398 C173.94594971 398.37463379 173.94594971 398.37463379 172.87060547 398.75683594 C145.73403339 408.16557288 117.70041791 407.61758923 89.3704114 407.57023358 C84.87594643 407.56506996 80.38153519 407.57245686 75.88707578 407.57970566 C65.29820291 407.59658458 54.70947467 407.59324934 44.12060547 407.57641602 C33.20402542 407.55938698 22.28784212 407.57550323 11.37130511 407.6076389 C1.96358338 407.63428105 -7.44401438 407.64162891 -16.85177004 407.63312382 C-22.45692786 407.62819357 -28.0618454 407.6304203 -33.66697311 407.65091133 C-38.91555783 407.66919182 -44.16356387 407.66340397 -49.412117 407.63871193 C-51.33949364 407.63368557 -53.26691395 407.6372408 -55.19425583 407.64986038 C-57.81779085 407.66568656 -60.43939374 407.65094266 -63.06283569 407.62818909 C-63.83079763 407.64002482 -64.59875956 407.65186054 -65.38999307 407.66405493 C-67.51474571 407.62641239 -67.51474571 407.62641239 -71 407 C-74.46740586 402.94917281 -74.3680156 399.05416387 -74.1796875 393.9453125 C-74.16144928 393.12513641 -74.14321106 392.30496033 -74.12442017 391.45993042 C-74.05737293 388.68094592 -73.96650164 385.90327987 -73.875 383.125 C-73.82021857 381.12241607 -73.76620639 379.11981098 -73.71289062 377.1171875 C-73.0868574 354.97397148 -72.06290502 332.84152525 -71.09399414 310.71118164 C-70.39265505 294.66437153 -69.71730111 278.62017764 -69.3125 262.5625 C-69.29380859 261.84360596 -69.27511719 261.12471191 -69.25585938 260.3840332 C-68.88207519 245.65935912 -68.92859393 230.9636247 -69.3671875 216.2421875 C-69.40669812 214.86601173 -69.44605623 213.48983157 -69.48527527 212.11364746 C-69.59022656 208.45744211 -69.69842009 204.80133987 -69.80751419 201.14525604 C-69.87567868 198.85216902 -69.94284799 196.55905479 -70.00973511 194.26593018 C-70.57047386 175.06891855 -71.19838118 155.87625411 -71.93826294 136.68521118 C-72.06163617 133.39801615 -72.17578059 130.11062959 -72.28686523 126.82299805 C-72.61068925 117.38113374 -72.97369095 107.95533415 -73.60346985 98.52819824 C-73.86318098 94.52391621 -74.07302423 90.51787109 -74.27511597 86.51031494 C-74.38166439 84.65812241 -74.51185874 82.80710752 -74.66799927 80.95843506 C-75.1345906 75.40200839 -75.37010497 70.43829968 -74 65 C-70.18952519 60.76617856 -66.01633411 58.59157616 -61 56 C-59.42011724 54.86988177 -57.86687906 53.70064728 -56.35546875 52.48046875 C-55.66799561 51.93986816 -54.98052246 51.39926758 -54.2722168 50.84228516 C-53.58426025 50.29620605 -52.89630371 49.75012695 -52.1875 49.1875 C-46.56549687 44.77110487 -40.91910461 40.39832784 -35.1875 36.125 C-26.11506208 29.35864247 -17.12201324 22.48889836 -8.12792969 15.61889648 C-7.42571289 15.08466064 -6.72349609 14.5504248 -6 14 C-5.29004883 13.43547119 -4.58009766 12.87094238 -3.84863281 12.28930664 C-2 11 -2 11 0 11 C0 7.37 0 3.74 0 0 Z " fill="#74C045" transform="translate(77,26)"/>
<path d="M0 0 C7.44868946 -0.06956576 14.89621293 -0.12908659 22.3449707 -0.16479492 C24.86909849 -0.17970971 27.39320118 -0.2000487 29.91723633 -0.22631836 C44.82275407 -0.37735778 59.19031011 0.01163477 73.88485718 2.62979126 C75.76888399 2.95954828 77.66116123 3.24135165 79.55395508 3.51635742 C86.43540643 4.5202125 92.82583486 6.30162705 99.375 8.625 C100.37305664 8.97763916 101.37111328 9.33027832 102.39941406 9.69360352 C115.22892725 14.37219907 125.79330708 20.83680284 136 30 C136.68320312 30.60070312 137.36640625 31.20140625 138.0703125 31.8203125 C155.07979957 47.72797044 165.91936337 70.51694975 171 93 C171.28762207 94.20994629 171.28762207 94.20994629 171.58105469 95.44433594 C180.62845488 134.42342878 173.22038609 173.67837603 152.6875 207.6875 C137.43155402 230.77945459 115.26859907 249.40875179 88 256 C85.35813917 256.4362921 82.76493399 256.81865983 80.109375 257.1171875 C79.00908463 257.24247833 79.00908463 257.24247833 77.88656616 257.37030029 C69.79867341 258.22242814 61.74984342 258.30408784 53.625 258.25 C52.84782623 258.24822754 52.07065247 258.24645508 51.26992798 258.24462891 C33.79337545 258.1985102 16.43956479 257.1482841 -1 256 C-1 243.46 -1 230.92 -1 218 C2.63 218.66 6.26 219.32 10 220 C13.71021322 220.17725014 17.34046067 220.28148495 21.046875 220.265625 C22.56828094 220.26849518 22.56828094 220.26849518 24.12042236 220.27142334 C26.25150808 220.27277464 28.38260233 220.2691526 30.51367188 220.26074219 C33.72805862 220.25007283 36.94188083 220.26065084 40.15625 220.2734375 C63.40862943 220.29064083 83.66824919 218.1818695 101.5 201.6875 C121.67480377 180.3918738 129.82532085 151.92343484 129.25390625 123.109375 C128.43782625 101.5058101 121.66231792 80.20282411 107 64 C105.98486328 62.84564453 105.98486328 62.84564453 104.94921875 61.66796875 C90.32767833 45.97721148 68.93716727 38.5690837 47.8671875 37.73071289 C43.36984659 37.62200917 38.87570592 37.62247254 34.37744141 37.66381836 C31.60680467 37.68765655 28.83712148 37.68431854 26.06640625 37.67773438 C24.26561938 37.6833065 22.46483646 37.69041344 20.6640625 37.69921875 C19.4511705 37.69785164 19.4511705 37.69785164 18.21377563 37.69645691 C11.78134775 37.77454699 6.55195353 38.80873572 0 40 C0 26.8 0 13.6 0 0 Z " fill="#FEFEFE" transform="translate(164,80)"/>
<path d="M0 0 C0.99617844 -0.00029205 1.99235687 -0.00058411 3.01872253 -0.00088501 C6.28137198 0.00049812 9.54378739 0.01601121 12.80639648 0.03173828 C15.08039729 0.03547203 17.35439971 0.03831729 19.62840271 0.04031372 C25.59107973 0.04792169 31.55365812 0.06754571 37.51629639 0.08972168 C43.60972764 0.11024136 49.70317495 0.1193285 55.79663086 0.12939453 C67.73613412 0.15079438 79.67553851 0.1859533 91.61499023 0.22705078 C91.61499023 10.45705078 91.61499023 20.68705078 91.61499023 31.22705078 C88.98699463 31.24687012 86.35899902 31.26668945 83.65136719 31.28710938 C74.92618582 31.3542969 66.20111928 31.43193075 57.47607136 31.51457787 C52.19094227 31.56432495 46.90583111 31.6106553 41.62060547 31.64892578 C36.51116951 31.68605327 31.40189195 31.7324842 26.292593 31.78511429 C24.35239657 31.80351344 22.41216637 31.81867357 20.47191811 31.83039474 C-4.11515655 31.7578989 -4.11515655 31.7578989 -25.19750977 43.35205078 C-34.27973048 53.15647218 -35.58851111 64.14584849 -35.62524414 76.87231445 C-35.63489896 78.89137794 -35.66593868 80.90939965 -35.69750977 82.92822266 C-35.74848466 95.76752342 -33.53567559 105.73587706 -24.49829102 115.20361328 C-12.74403274 126.05725059 0.92214607 126.49001823 16.35327148 126.64111328 C17.60005173 126.66047943 18.84683197 126.67984558 20.13139343 126.69979858 C24.06335892 126.75896394 27.9953547 126.80572508 31.92749023 126.85205078 C34.61436684 126.8892739 37.30120199 126.92914292 39.98803711 126.96923828 C46.5302906 127.06613065 53.07244078 127.14619976 59.61499023 127.22705078 C59.61499023 116.66705078 59.61499023 106.10705078 59.61499023 95.22705078 C40.80499023 95.22705078 21.99499023 95.22705078 2.61499023 95.22705078 C2.61499023 84.99705078 2.61499023 74.76705078 2.61499023 64.22705078 C31.98499023 64.22705078 61.35499023 64.22705078 91.61499023 64.22705078 C91.61499023 95.24705078 91.61499023 126.26705078 91.61499023 158.22705078 C66.60046281 158.34737721 66.60046281 158.34737721 55.89428711 158.37353516 C48.60409959 158.3914317 41.31402568 158.41254782 34.02392578 158.45336914 C28.14300609 158.48609162 22.26220835 158.50393098 16.38120461 158.51168251 C14.14345189 158.51720292 11.90570545 158.52798267 9.66800499 158.54424095 C6.52087633 158.56618643 3.37424429 158.56901056 0.22705078 158.56762695 C-0.68717651 158.57841278 -1.60140381 158.58919861 -2.54333496 158.60031128 C-12.17541043 158.55482902 -20.92307733 155.9333303 -29.44750977 151.53955078 C-30.12942383 151.19142334 -30.81133789 150.8432959 -31.51391602 150.48461914 C-47.80076387 141.91127487 -59.82105207 127.69575407 -65.53955078 110.14233398 C-68.2704705 100.72566856 -68.73194588 91.22423601 -68.70068359 81.47387695 C-68.69752874 79.42686319 -68.72106831 77.38130881 -68.74633789 75.33447266 C-68.81136444 61.84121048 -66.85689576 49.26475874 -60.38500977 37.22705078 C-59.95446289 36.39818359 -59.52391602 35.56931641 -59.08032227 34.71533203 C-51.54210016 21.15079111 -40.61972219 12.03500822 -26.82250977 5.41455078 C-26.22156494 5.12418945 -25.62062012 4.83382812 -25.00146484 4.53466797 C-16.85406272 0.80699769 -8.88521648 -0.06933837 0 0 Z " fill="#050708" transform="translate(708.385009765625,86.77294921875)"/>
<path d="M0 0 C27.8128125 -0.12375 27.8128125 -0.12375 56.1875 -0.25 C64.93737427 -0.30462402 64.93737427 -0.30462402 73.86401367 -0.36035156 C81.04162598 -0.37841797 81.04162598 -0.37841797 84.41230774 -0.3817749 C86.74343427 -0.38787747 89.07454896 -0.40186252 91.40559387 -0.42230225 C112.12849662 -0.59477115 127.47647131 0.86561709 143.25 15.6875 C156.8949481 29.96154746 159.43425964 45.41447847 159.20703125 64.30859375 C158.83896747 78.19792077 153.53812884 90.98910101 143.96875 101.2109375 C134.29694323 110 134.29694323 110 130 110 C132.54061488 114.8142811 136.0191975 118.41751287 139.75 122.3125 C141.02041804 123.65541164 142.28996026 124.99915239 143.55859375 126.34375 C144.46134033 127.29894531 144.46134033 127.29894531 145.38232422 128.2734375 C147.77847892 130.8308788 150.08021456 133.46246012 152.3671875 136.1171875 C154.36178875 138.41718224 156.39823502 140.67702662 158.4375 142.9375 C159.18773438 143.77023438 159.93796875 144.60296875 160.7109375 145.4609375 C162.25668126 147.1754997 163.80358539 148.88901639 165.3515625 150.6015625 C166.44597656 151.81972656 166.44597656 151.81972656 167.5625 153.0625 C168.22378906 153.79597656 168.88507812 154.52945313 169.56640625 155.28515625 C171 157 171 157 171 158 C164.91719158 158.27363836 158.83802161 158.47228591 152.75048828 158.60424805 C150.68409786 158.65928938 148.61813048 158.73415434 146.55322266 158.82983398 C128.44345402 159.64744063 128.44345402 159.64744063 123.47973633 155.64526367 C120.96618212 152.88405281 118.97765144 150.15835957 117 147 C115.83809451 145.62380988 114.65564403 144.26416828 113.4375 142.9375 C112.88964844 142.30714844 112.34179688 141.67679688 111.77734375 141.02734375 C109.70640513 138.66510827 107.60487152 136.33204147 105.5 134 C104 132.33333333 102.5 130.66666667 101 129 C100.32066406 128.24976563 99.64132812 127.49953125 98.94140625 126.7265625 C98.01134766 125.68628906 98.01134766 125.68628906 97.0625 124.625 C96.51722656 124.01914063 95.97195313 123.41328125 95.41015625 122.7890625 C94 121 94 121 92 117 C76.49 117 60.98 117 45 117 C45 106.77 45 96.54 45 86 C49.08246094 85.95101562 53.16492187 85.90203125 57.37109375 85.8515625 C60.64750153 85.80695544 63.92387065 85.76046384 67.20023346 85.71270752 C70.64704029 85.66297947 74.09381788 85.61649192 77.54077148 85.578125 C81.50521417 85.53384364 85.4693601 85.47429298 89.43359375 85.4140625 C90.65582138 85.40251129 91.87804901 85.39096008 93.13731384 85.37905884 C103.62182948 85.19955018 112.9544814 84.36834068 121 77 C126.50844564 68.97254064 126.54968707 60.41339099 126 51 C124.78104193 45.0575794 122.04396231 40.08644407 116.98828125 36.62109375 C110.05425916 32.48893457 103.71765846 31.89487274 95.68774414 31.79467773 C94.98313521 31.78464501 94.27852629 31.77461229 93.55256557 31.76427555 C91.29679466 31.73317097 89.04100599 31.7082366 86.78515625 31.68359375 C85.38244084 31.66516436 83.97973074 31.64632634 82.57702637 31.6270752 C77.40558031 31.55894262 72.23403288 31.49868871 67.0625 31.4375 C55.491875 31.293125 43.92125 31.14875 32 31 C32 72.91 32 114.82 32 158 C21.44 158 10.88 158 0 158 C0 105.86 0 53.72 0 0 Z " fill="#050708" transform="translate(1947,87)"/>
<path d="M0 0 C24.62625 -0.0928125 24.62625 -0.0928125 49.75 -0.1875 C54.91366211 -0.21481201 60.07732422 -0.24212402 65.39746094 -0.27026367 C71.75439453 -0.28381348 71.75439453 -0.28381348 74.74029541 -0.28633118 C76.80395453 -0.2909061 78.86760617 -0.30139058 80.93121338 -0.31672668 C104.35712713 -0.48195857 121.89255918 3.49989348 139.33203125 20.23828125 C152.14337958 33.57343258 159.04496981 50.41512276 159.23828125 68.8984375 C159.246353 69.65105865 159.25442474 70.40367981 159.26274109 71.17910767 C159.27652005 72.77091212 159.28726964 74.36274534 159.29516602 75.95458984 C159.30659444 77.55038382 159.32689826 79.14614241 159.35668945 80.74169922 C159.75023974 101.88788154 154.83261089 121.11753098 140 137 C128.58535936 148.70435233 113.32891205 157.90214802 96.56437683 158.12025452 C94.76321505 158.1231566 92.96203926 158.12050733 91.16088867 158.11352539 C89.65828853 158.11370619 89.65828853 158.11370619 88.12533283 158.11389065 C84.88952205 158.11314552 81.6537692 158.10553545 78.41796875 158.09765625 C76.41752144 158.09618559 74.41707375 158.09516564 72.41662598 158.09460449 C65.00691144 158.08936594 57.59720515 158.07540472 50.1875 158.0625 C33.625625 158.041875 17.06375 158.02125 0 158 C0 105.86 0 53.72 0 0 Z M32 31 C32 62.68 32 94.36 32 127 C45.4578125 127.061875 45.4578125 127.061875 59.1875 127.125 C61.9927417 127.14320801 64.7979834 127.16141602 67.68823242 127.18017578 C69.95230926 127.1860259 72.21638823 127.19112022 74.48046875 127.1953125 C76.19441833 127.2106604 76.19441833 127.2106604 77.94299316 127.22631836 C92.68564955 127.22945676 105.19666383 125.57167863 116.375 115.25 C125.98136497 104.95465393 127.3617815 92.82841402 127.375 79.3125 C127.41173828 77.3644043 127.41173828 77.3644043 127.44921875 75.37695312 C127.48934565 62.06150975 124.55352415 51.63188021 115.1171875 42.09765625 C103.39398419 31.22495985 89.93740897 30.66627527 74.48046875 30.8046875 C73.39270142 30.80670166 72.30493408 30.80871582 71.1842041 30.81079102 C67.18525881 30.82112385 63.18637441 30.84904447 59.1875 30.875 C50.215625 30.91625 41.24375 30.9575 32 31 Z " fill="#050708" transform="translate(1403,87)"/>
<path d="M0 0 C24.62625 -0.0928125 24.62625 -0.0928125 49.75 -0.1875 C54.91366211 -0.21481201 60.07732422 -0.24212402 65.39746094 -0.27026367 C71.75439453 -0.28381348 71.75439453 -0.28381348 74.74029541 -0.28633118 C76.80395453 -0.2909061 78.86760617 -0.30139058 80.93121338 -0.31672668 C104.35712713 -0.48195857 121.89255918 3.49989348 139.33203125 20.23828125 C152.14337958 33.57343258 159.04496981 50.41512276 159.23828125 68.8984375 C159.246353 69.65105865 159.25442474 70.40367981 159.26274109 71.17910767 C159.27652005 72.77091212 159.28726964 74.36274534 159.29516602 75.95458984 C159.30659444 77.55038382 159.32689826 79.14614241 159.35668945 80.74169922 C159.75023974 101.88788154 154.83261089 121.11753098 140 137 C128.58535936 148.70435233 113.32891205 157.90214802 96.56437683 158.12025452 C94.76321505 158.1231566 92.96203926 158.12050733 91.16088867 158.11352539 C89.65828853 158.11370619 89.65828853 158.11370619 88.12533283 158.11389065 C84.88952205 158.11314552 81.6537692 158.10553545 78.41796875 158.09765625 C76.41752144 158.09618559 74.41707375 158.09516564 72.41662598 158.09460449 C65.00691144 158.08936594 57.59720515 158.07540472 50.1875 158.0625 C33.625625 158.041875 17.06375 158.02125 0 158 C0 105.86 0 53.72 0 0 Z M32 31 C32 62.68 32 94.36 32 127 C45.4578125 127.061875 45.4578125 127.061875 59.1875 127.125 C61.9927417 127.14320801 64.7979834 127.16141602 67.68823242 127.18017578 C69.95230926 127.1860259 72.21638823 127.19112022 74.48046875 127.1953125 C76.19441833 127.2106604 76.19441833 127.2106604 77.94299316 127.22631836 C92.68564955 127.22945676 105.19666383 125.57167863 116.375 115.25 C125.98136497 104.95465393 127.3617815 92.82841402 127.375 79.3125 C127.41173828 77.3644043 127.41173828 77.3644043 127.44921875 75.37695312 C127.48934565 62.06150975 124.55352415 51.63188021 115.1171875 42.09765625 C103.39398419 31.22495985 89.93740897 30.66627527 74.48046875 30.8046875 C73.39270142 30.80670166 72.30493408 30.80871582 71.1842041 30.81079102 C67.18525881 30.82112385 63.18637441 30.84904447 59.1875 30.875 C50.215625 30.91625 41.24375 30.9575 32 31 Z " fill="#050708" transform="translate(414,87)"/>
<path d="M0 0 C1.2192366 -0.0066568 2.43847321 -0.0133136 3.69465637 -0.02017212 C6.26557923 -0.03025929 8.83652807 -0.03499036 11.4074707 -0.03466797 C15.3026946 -0.03902965 19.19677382 -0.0753627 23.09179688 -0.11328125 C47.40484007 -0.2247105 47.40484007 -0.2247105 58.14453125 4.3359375 C58.82700928 4.60776855 59.5094873 4.87959961 60.21264648 5.15966797 C77.19171383 12.52553376 89.2560883 26.21020196 96.85546875 42.7421875 C100.91362647 54.05583933 101.64616624 64.44537013 101.59057617 76.36157227 C101.58207833 79.13308393 101.61089339 81.90251937 101.64257812 84.67382812 C101.7279284 105.98282723 96.14136082 123.49491554 81.14453125 139.3359375 C75.7836227 144.565635 69.83057662 148.25653813 63.20703125 151.6484375 C62.57531006 151.97416748 61.94358887 152.29989746 61.29272461 152.63549805 C51.42500556 157.44612056 41.88630856 158.79164806 30.98828125 158.734375 C29.15299866 158.73868027 29.15299866 158.73868027 27.28063965 158.74307251 C24.70906101 158.74510238 22.13746655 158.73964849 19.56591797 158.72705078 C15.65556941 158.71098286 11.74625435 158.72693757 7.8359375 158.74609375 C5.32421649 158.74411113 2.81249613 158.74026706 0.30078125 158.734375 C-0.85474243 158.74044769 -2.01026611 158.74652039 -3.20080566 158.7527771 C-13.60674287 158.66371181 -22.68080517 156.40958266 -31.91796875 151.6484375 C-32.59988281 151.30031006 -33.28179688 150.95218262 -33.984375 150.59350586 C-50.27122285 142.02016159 -62.29151105 127.80464079 -68.01000977 110.2512207 C-70.74092948 100.83455528 -71.20240486 91.33312272 -71.17114258 81.58276367 C-71.16798773 79.53574991 -71.19152729 77.49019553 -71.21679688 75.44335938 C-71.28182343 61.9500972 -69.32735475 49.37364546 -62.85546875 37.3359375 C-62.42492188 36.50707031 -61.994375 35.67820313 -61.55078125 34.82421875 C-54.01255914 21.25967783 -43.09018117 12.14389494 -29.29296875 5.5234375 C-28.69202393 5.23307617 -28.0910791 4.94271484 -27.47192383 4.64355469 C-18.5175498 0.54667161 -9.75247389 0.01876938 0 0 Z M-30.06640625 44.98828125 C-37.82284888 55.16649526 -39.05991131 64.58082724 -39.09570312 76.98120117 C-39.10535794 79.00026466 -39.13639766 81.01828637 -39.16796875 83.03710938 C-39.21966325 96.05766258 -36.91359427 105.97718812 -27.74609375 115.53515625 C-15.05151793 127.37613128 -1.1143851 127.68483853 15.70703125 127.5859375 C17.02638672 127.59367187 18.34574219 127.60140625 19.70507812 127.609375 C34.76954213 127.5795296 47.95095094 126.00060167 59.328125 115.3359375 C71.04424621 102.43560619 70.9541203 86.51028485 70.30859375 70.02246094 C69.60762279 58.54406152 65.28756455 49.03683934 57.01953125 41.0234375 C45.43364553 31.38803759 32.3120894 31.14890883 17.93505859 31.15063477 C15.91221795 31.14845655 13.88993166 31.13026215 11.8671875 31.11132812 C-4.3619544 31.08748512 -18.45768114 32.59130937 -30.06640625 44.98828125 Z " fill="#050708" transform="translate(1827.85546875,86.6640625)"/>
<path d="M0 0 C1.2192366 -0.0066568 2.43847321 -0.0133136 3.69465637 -0.02017212 C6.26557923 -0.03025929 8.83652807 -0.03499036 11.4074707 -0.03466797 C15.3026946 -0.03902965 19.19677382 -0.0753627 23.09179688 -0.11328125 C47.40484007 -0.2247105 47.40484007 -0.2247105 58.14453125 4.3359375 C58.82700928 4.60776855 59.5094873 4.87959961 60.21264648 5.15966797 C77.19171383 12.52553376 89.2560883 26.21020196 96.85546875 42.7421875 C100.91362647 54.05583933 101.64616624 64.44537013 101.59057617 76.36157227 C101.58207833 79.13308393 101.61089339 81.90251937 101.64257812 84.67382812 C101.7279284 105.98282723 96.14136082 123.49491554 81.14453125 139.3359375 C75.7836227 144.565635 69.83057662 148.25653813 63.20703125 151.6484375 C62.57531006 151.97416748 61.94358887 152.29989746 61.29272461 152.63549805 C51.42500556 157.44612056 41.88630856 158.79164806 30.98828125 158.734375 C29.15299866 158.73868027 29.15299866 158.73868027 27.28063965 158.74307251 C24.70906101 158.74510238 22.13746655 158.73964849 19.56591797 158.72705078 C15.65556941 158.71098286 11.74625435 158.72693757 7.8359375 158.74609375 C5.32421649 158.74411113 2.81249613 158.74026706 0.30078125 158.734375 C-0.85474243 158.74044769 -2.01026611 158.74652039 -3.20080566 158.7527771 C-13.60674287 158.66371181 -22.68080517 156.40958266 -31.91796875 151.6484375 C-32.59988281 151.30031006 -33.28179688 150.95218262 -33.984375 150.59350586 C-50.27122285 142.02016159 -62.29151105 127.80464079 -68.01000977 110.2512207 C-70.74092948 100.83455528 -71.20240486 91.33312272 -71.17114258 81.58276367 C-71.16798773 79.53574991 -71.19152729 77.49019553 -71.21679688 75.44335938 C-71.28182343 61.9500972 -69.32735475 49.37364546 -62.85546875 37.3359375 C-62.42492188 36.50707031 -61.994375 35.67820313 -61.55078125 34.82421875 C-54.01255914 21.25967783 -43.09018117 12.14389494 -29.29296875 5.5234375 C-28.69202393 5.23307617 -28.0910791 4.94271484 -27.47192383 4.64355469 C-18.5175498 0.54667161 -9.75247389 0.01876938 0 0 Z M-30.06640625 44.98828125 C-37.82284888 55.16649526 -39.05991131 64.58082724 -39.09570312 76.98120117 C-39.10535794 79.00026466 -39.13639766 81.01828637 -39.16796875 83.03710938 C-39.21966325 96.05766258 -36.91359427 105.97718812 -27.74609375 115.53515625 C-15.05151793 127.37613128 -1.1143851 127.68483853 15.70703125 127.5859375 C17.02638672 127.59367187 18.34574219 127.60140625 19.70507812 127.609375 C34.76954213 127.5795296 47.95095094 126.00060167 59.328125 115.3359375 C71.04424621 102.43560619 70.9541203 86.51028485 70.30859375 70.02246094 C69.60762279 58.54406152 65.28756455 49.03683934 57.01953125 41.0234375 C45.43364553 31.38803759 32.3120894 31.14890883 17.93505859 31.15063477 C15.91221795 31.14845655 13.88993166 31.13026215 11.8671875 31.11132812 C-4.3619544 31.08748512 -18.45768114 32.59130937 -30.06640625 44.98828125 Z " fill="#050708" transform="translate(1643.85546875,86.6640625)"/>
<path d="M0 0 C6.15728468 5.13999416 9.78633423 12.38369746 13.2578125 19.47265625 C13.70778595 20.37552872 14.1577594 21.27840118 14.62136841 22.20863342 C16.06678877 25.11435948 17.50042842 28.02571285 18.93359375 30.9375 C19.93330202 32.95387905 20.93354846 34.96999137 21.93432617 36.98583984 C27.12719297 47.46314939 32.2670966 57.96344775 37.2565918 68.53930664 C41.64188017 77.80256344 46.26545923 86.9456155 50.865448 96.10345459 C55.81673091 105.96467018 60.68400743 115.85698772 65.40161133 125.83276367 C69.101613 133.63847208 72.96587156 141.35752087 76.89599609 149.04980469 C77.33508301 149.91637695 77.77416992 150.78294922 78.2265625 151.67578125 C78.61739014 152.44059814 79.00821777 153.20541504 79.41088867 153.9934082 C80.24609375 155.875 80.24609375 155.875 80.24609375 157.875 C68.36609375 157.875 56.48609375 157.875 44.24609375 157.875 C41.60609375 152.595 38.96609375 147.315 36.24609375 141.875 C33.37455566 136.22089382 33.37455566 136.22089382 30.49609375 130.5703125 C29.24609375 127.875 29.24609375 127.875 29.24609375 125.875 C0.20609375 126.205 -28.83390625 126.535 -58.75390625 126.875 C-63.70390625 137.105 -68.65390625 147.335 -73.75390625 157.875 C-85.63390625 157.875 -97.51390625 157.875 -109.75390625 157.875 C-108.26287065 153.4018932 -106.77221026 149.68666676 -104.6640625 145.53515625 C-104.36389221 144.94037979 -104.06372192 144.34560333 -103.75445557 143.73280334 C-103.11193573 142.46013093 -102.46771447 141.1883163 -101.82192993 139.91729736 C-100.10764509 136.5420048 -98.40710204 133.15981271 -96.70703125 129.77734375 C-96.36646194 129.10014282 -96.02589264 128.42294189 -95.67500305 127.72521973 C-92.72856376 121.85302539 -89.87814132 115.93786135 -87.06640625 110 C-82.90588896 101.22199436 -78.59801806 92.52673726 -74.23144531 83.84960938 C-70.37731539 76.17120722 -66.65783548 68.43520255 -62.9753418 60.67333984 C-58.90124503 52.1162031 -54.66405116 43.64452646 -50.39233398 35.18457031 C-47.60195146 29.64149615 -44.90247537 24.08025038 -42.3581543 18.42016602 C-38.49391121 9.85640217 -34.31223263 1.43727 -25.24609375 -2.49609375 C-16.59710647 -4.67867518 -7.9211034 -4.06644881 0 0 Z M-15.75390625 36.875 C-19.11150973 43.69792432 -22.46712177 50.52182488 -25.82021904 57.34696484 C-27.37738386 60.51637556 -28.9352236 63.68545072 -30.49462891 66.85375977 C-32.28881828 70.49916517 -34.08002956 74.14602685 -35.87109375 77.79296875 C-36.42948944 78.92647263 -36.98788513 80.0599765 -37.5632019 81.22782898 C-38.08359039 82.28855118 -38.60397888 83.34927338 -39.14013672 84.44213867 C-39.5975827 85.37257492 -40.05502869 86.30301117 -40.52633667 87.26164246 C-41.69825454 89.75652377 -42.73019938 92.31573282 -43.75390625 94.875 C-24.94390625 94.875 -6.13390625 94.875 13.24609375 94.875 C11.71098448 90.26967219 10.01746921 86.06972342 7.90234375 81.73828125 C7.57665405 81.06475616 7.25096436 80.39123108 6.91540527 79.69729614 C5.86314156 77.52530871 4.80499631 75.35625763 3.74609375 73.1875 C3.38837891 72.45177765 3.03066406 71.7160553 2.66210938 70.95803833 C-2.92099355 59.47718779 -8.66667854 48.0983261 -14.75390625 36.875 C-15.08390625 36.875 -15.41390625 36.875 -15.75390625 36.875 Z " fill="#050708" transform="translate(1092.75390625,87.125)"/>
<path d="M0 0 C5.94 0 11.88 0 18 0 C17.67 113.52 17.34 227.04 17 344 C154.86643122 354.0035329 154.86643122 354.0035329 259.125 298.1875 C264.95819016 292.22195221 269.98057327 285.64882669 275 279 C275.44891602 278.40703125 275.89783203 277.8140625 276.36035156 277.203125 C278.92289926 273.81388855 281.46865039 270.41263429 284 267 C288.1030686 268.2249741 291.36438139 269.67820521 294.875 272.125 C295.65617187 272.66382813 296.43734375 273.20265625 297.2421875 273.7578125 C298.11230469 274.37269531 298.11230469 274.37269531 299 275 C292.51280349 288.54784685 281.60372028 300.51939984 271 311 C270.53045898 311.4647876 270.06091797 311.9295752 269.57714844 312.40844727 C237.94176321 343.43943339 197.6783332 362.69875493 153.07641602 362.40234375 C150.63427206 362.37283018 148.1921335 362.34286659 145.75 362.3125 C143.13012208 362.29521489 140.51027461 362.27957022 137.89038086 362.265625 C131.01993255 362.22451592 124.14990489 362.15776655 117.27972889 362.08489418 C110.12095974 362.00966256 102.962125 361.94543435 95.80322266 361.88427734 C65.2017901 361.62217579 34.60081554 361.32611928 4 361 C4 359.68 4 358.36 4 357 C3.01 357 2.02 357 1 357 C0.67 239.19 0.34 121.38 0 0 Z " fill="#FDFDFD" transform="translate(77,26)"/>
<path d="M0 0 C48.18 0 96.36 0 146 0 C146 10.23 146 20.46 146 31 C127.19 31 108.38 31 89 31 C89 72.91 89 114.82 89 158 C78.44 158 67.88 158 57 158 C57 116.09 57 74.18 57 31 C38.19 31 19.38 31 0 31 C0 20.77 0 10.54 0 0 Z " fill="#050708" transform="translate(864,87)"/>
<path d="M0 0 C10.56 0 21.12 0 32 0 C32 41.91 32 83.82 32 127 C64.67 127 97.34 127 131 127 C131 137.23 131 147.46 131 158 C87.77 158 44.54 158 0 158 C0 105.86 0 53.72 0 0 Z " fill="#050708" transform="translate(1182,87)"/>
<path d="M0 0 C1.27093506 0.00684814 2.54187012 0.01369629 3.85131836 0.02075195 C13.3903622 0.18350515 21.70585845 1.17434739 30.6875 4.4375 C32.30591797 5.01564453 32.30591797 5.01564453 33.95703125 5.60546875 C47.78350245 10.97953114 58.60705361 19.80232922 69.6875 29.4375 C69.14325015 33.45018958 67.16677799 35.42166846 64.375 38.25 C63.20517578 39.46623047 63.20517578 39.46623047 62.01171875 40.70703125 C59.6875 42.4375 59.6875 42.4375 57.75 42.51171875 C54.75499426 40.95181993 52.46082724 38.7095306 50 36.4375 C33.39416725 21.82331391 14.16403027 15.96984249 -7.77294922 17.21435547 C-23.5702728 18.60243024 -39.37254438 27.3668947 -49.75390625 39.2265625 C-58.52664318 50.41288603 -64.18248098 63.19926031 -65.3125 77.4375 C-65.36535156 78.0871875 -65.41820312 78.736875 -65.47265625 79.40625 C-66.29066889 98.4695012 -57.85521391 115.91079946 -45.26171875 129.6796875 C-31.16905765 143.32117113 -12.76195457 148.0689059 6.32885742 147.9128418 C14.06575825 147.67967492 20.54401283 146.56084287 27.6875 143.4375 C28.54988281 143.09847656 29.41226562 142.75945312 30.30078125 142.41015625 C43.3890829 136.69038523 51.58570999 126.11375709 56.9375 113.25 C58.45693592 109.33811893 59.52180124 105.51744565 60.6875 101.4375 C44.8475 101.4375 29.0075 101.4375 12.6875 101.4375 C12.6875 96.1575 12.6875 90.8775 12.6875 85.4375 C34.4675 85.4375 56.2475 85.4375 78.6875 85.4375 C78.6875 109.5398968 72.69368051 129.09904954 55.6875 146.4375 C55.15769531 146.99179687 54.62789062 147.54609375 54.08203125 148.1171875 C37.80152467 163.60250224 16.13668215 165.32399301 -5.12890625 164.8125 C-26.76091256 163.91409091 -46.60479212 154.93615068 -61.5625 139.125 C-77.05830729 121.29991788 -84.71258035 99.71178692 -83.0625 76.09765625 C-81.37833028 57.50717391 -74.96104427 40.37389605 -62.3125 26.4375 C-61.56226563 25.59445312 -60.81203125 24.75140625 -60.0390625 23.8828125 C-44.18628373 7.0039639 -22.73945435 -0.18910464 0 0 Z " fill="#74C045" transform="translate(1027.3125,258.5625)"/>
<path d="M0 0 C15.51 0 31.02 0 47 0 C46.83628906 6.42597656 46.67257813 12.85195312 46.50390625 19.47265625 C46.05578709 39.1473515 45.90045531 58.81679493 45.90234375 78.49609375 C45.90244029 79.50211034 45.90244029 79.50211034 45.90253878 80.52845049 C45.90416899 88.74139485 45.91443474 96.95431885 45.92797339 105.16725123 C45.93945423 112.26363032 45.94472366 119.36001077 45.94967639 126.45639694 C45.95993517 140.97094214 45.97815746 155.48546715 46 170 C30.82 170 15.64 170 0 170 C0 158.66475155 0.03264208 147.99485854 0.64666748 136.80096436 C1.3527321 122.67436855 1.14902768 108.50623394 1.13037109 94.36621094 C1.12471895 90.02929707 1.12802459 85.69244525 1.13382339 81.3555336 C1.15362987 63.74543722 1.056212 46.15993903 0.34939575 28.56204224 C-0.02609161 19.01465028 0 9.58447043 0 0 Z " fill="#FEFEFE" transform="translate(114,122)"/>
<path d="M0 0 C5 0 5 0 6.58642578 1.1706543 C7.0348584 1.71633057 7.48329102 2.26200684 7.9453125 2.82421875 C8.45932617 3.43426758 8.97333984 4.04431641 9.50292969 4.67285156 C10.03821289 5.33768555 10.57349609 6.00251953 11.125 6.6875 C11.6912207 7.36651367 12.25744141 8.04552734 12.84082031 8.74511719 C14.00741701 10.14542492 15.16821229 11.55058557 16.32324219 12.96044922 C18.31315192 15.38090728 20.34394372 17.76399867 22.38012695 20.14550781 C26.12308221 24.5295217 29.80072122 28.96498031 33.4375 33.4375 C37.39508188 38.30129025 41.46542446 43.05881231 45.55834961 47.80834961 C49.33334391 52.1980035 53.00728461 56.66114771 56.65625 61.15625 C59.39302049 64.47686486 62.1910295 67.74046782 65 71 C69.29972713 75.98940767 73.50485409 81.04221156 77.65625 86.15625 C80.39302383 89.47686891 83.19115891 92.74035181 86 96 C99.28470919 111.42706379 99.28470919 111.42706379 103 117 C103.33 78.39 103.66 39.78 104 0 C108.95 0 113.9 0 119 0 C119 51.48 119 102.96 119 156 C114 156 114 156 111.2734375 153.39453125 C110.29249527 152.21264674 109.32720299 151.01765895 108.375 149.8125 C107.31382537 148.5208142 106.25262692 147.22914797 105.19140625 145.9375 C104.65918457 145.27878906 104.12696289 144.62007812 103.57861328 143.94140625 C101.65141531 141.57130444 99.6747481 139.24687788 97.69018555 136.92480469 C93.92361645 132.51679081 90.21977326 128.06173545 86.5625 123.5625 C82.1485377 118.14143044 77.60217195 112.84158026 73.04296875 107.54296875 C68.78648075 102.59441284 64.57832994 97.6052146 60.36767578 92.61767578 C58.97540583 90.97091021 57.57994527 89.32689933 56.18359375 87.68359375 C51.93259941 82.67765348 47.70435708 77.6595962 43.5625 72.5625 C39.65767493 67.76354682 35.65232822 63.05931145 31.59985352 58.38500977 C26.95332547 53.00596079 22.5082415 47.51007294 18 42 C17.67 79.62 17.34 117.24 17 156 C11.39 156 5.78 156 0 156 C0 104.52 0 53.04 0 0 Z " fill="#74C045" transform="translate(1289,263)"/>
<path d="M0 0 C6.42849914 4.79905318 12.85270473 10.5524946 17.3125 17.2421875 C17.15607666 20.13312256 16.42852649 21.12427823 14.38671875 23.19921875 C13.59910156 23.81152344 12.81148437 24.42382812 12 25.0546875 C11.22011719 25.67988281 10.44023438 26.30507813 9.63671875 26.94921875 C7.3125 28.2421875 7.3125 28.2421875 5.17578125 28.12890625 C2.48470099 26.84824541 1.11341369 24.61056043 -0.73828125 22.34375 C-11.24984002 11.01064656 -26.82911704 3.52726356 -42.30078125 2.80859375 C-44.20037579 2.7850831 -46.10037018 2.78422499 -48 2.8046875 C-49.00401855 2.81298584 -50.00803711 2.82128418 -51.04248047 2.82983398 C-68.48772585 3.22459272 -83.64452955 10.07048481 -96.02734375 22.35546875 C-109.28552086 36.74282981 -113.42994827 54.1257255 -112.99609375 73.12890625 C-112.16536133 91.56013544 -103.95477157 106.72832054 -90.6875 119.2421875 C-75.00719661 132.55334847 -56.48833188 134.66033123 -36.6875 133.2421875 C-20.6861687 131.07204389 -7.96149361 121.70258243 2.41015625 109.84375 C4.3125 108.2421875 4.3125 108.2421875 6.265625 108.26953125 C8.8311112 109.48862679 10.85453742 111.01883541 13.0625 112.8046875 C13.86171875 113.44535156 14.6609375 114.08601563 15.484375 114.74609375 C16.08765625 115.23980469 16.6909375 115.73351562 17.3125 116.2421875 C15.85550195 124.47422646 6.63558464 131.40357147 0.3125 136.2421875 C-20.25727765 149.94689721 -44.207345 153.38210168 -68.58984375 149.62890625 C-81.64422082 146.98264294 -94.83313002 140.16277645 -104.6875 131.2421875 C-105.3475 130.67371094 -106.0075 130.10523438 -106.6875 129.51953125 C-120.87891298 116.46454001 -129.83835431 95.90420313 -130.81347656 76.77026367 C-131.56692038 50.24951799 -126.19523976 28.14673781 -107.6875 8.2421875 C-78.23125356 -19.14695392 -33.42931374 -21.86510346 0 0 Z " fill="#74C045" transform="translate(1589.6875,272.7578125)"/>
<path d="M0 0 C1.98 0 3.96 0 6 0 C13.035927 14.97145797 19.93157536 29.9972246 26.625 45.125 C32.46356677 58.31794099 38.35961493 71.48322493 44.3125 84.625 C44.70383118 85.48931641 45.09516235 86.35363281 45.49835205 87.24414062 C49.65469062 96.4235849 53.81757686 105.60004144 57.9863739 114.77383423 C59.73770192 118.62892513 61.48707316 122.48490229 63.23617554 126.34100342 C64.47098473 129.06108416 65.70871805 131.77982133 66.9465332 134.49853516 C67.70409497 136.16822342 68.46150841 137.837979 69.21875 139.5078125 C69.72839546 140.62379822 69.72839546 140.62379822 70.24833679 141.7623291 C70.72772453 142.82187805 70.72772453 142.82187805 71.21679688 143.90283203 C71.49036011 144.50451202 71.76392334 145.10619202 72.04577637 145.72610474 C73.46570849 149.10977374 74.7115433 152.56411547 76 156 C70.06 156 64.12 156 58 156 C55.84737782 151.4518427 53.69626514 146.90302445 51.54858398 142.35253906 C50.82120864 140.81244045 50.09304878 139.27271206 49.36401367 137.73339844 C48.30168043 135.48996178 47.2424084 133.24509909 46.18359375 131 C45.86974228 130.33887207 45.55589081 129.67774414 45.23252869 128.99658203 C41.65571581 121.39680504 38.37134806 113.70593842 35 106 C13.88 106 -7.24 106 -29 106 C-33.3003125 115.3121875 -33.3003125 115.3121875 -37.6875 124.8125 C-38.58170654 126.74843018 -39.47591309 128.68436035 -40.3972168 130.67895508 C-44.28942736 139.10831435 -48.17209967 147.54119785 -52 156 C-57.94 156 -63.88 156 -70 156 C-67.33272302 146.98644332 -63.27068163 138.62299492 -59.3125 130.125 C-58.54974072 128.47779467 -57.78754334 126.83032905 -57.02587891 125.18261719 C-55.45619235 121.78734104 -53.88467027 118.39292389 -52.31201172 114.99902344 C-48.80692697 107.42795275 -45.34056533 99.83921854 -41.875 92.25 C-41.21071797 90.79637547 -40.54641131 89.3427622 -39.88208008 87.88916016 C-34.79569328 76.75669979 -29.73022075 65.61477462 -24.67041016 54.47021484 C-21.32708806 47.10819805 -17.97426267 39.75062513 -14.609375 32.3984375 C-14.24400635 31.60000427 -13.8786377 30.80157104 -13.50219727 29.97894287 C-11.73254716 26.11233412 -9.96177911 22.2462423 -8.18945312 18.38085938 C-7.54815589 16.98047846 -6.90687882 15.5800883 -6.265625 14.1796875 C-5.83537018 13.2427858 -5.83537018 13.2427858 -5.39642334 12.28695679 C-3.53375858 8.2166919 -1.74965006 4.11965457 0 0 Z M3 35 C-2.36126767 45.54421669 -7.48008428 56.17664862 -12.38452148 66.94091797 C-13.45674799 69.29220902 -14.53578332 71.64029947 -15.61523438 73.98828125 C-16.3050912 75.49721134 -16.99455962 77.00631906 -17.68359375 78.515625 C-18.0033165 79.21036926 -18.32303925 79.90511353 -18.65245056 80.62091064 C-20.07788874 83.76183306 -21.15927931 86.63711723 -22 90 C-5.5 90 11 90 28 90 C26.36992236 85.05582656 26.36992236 85.05582656 24.39941406 80.328125 C24.09859924 79.67303955 23.79778442 79.0179541 23.487854 78.34301758 C23.16701843 77.65232178 22.84618286 76.96162598 22.515625 76.25 C22.17754822 75.51483154 21.83947144 74.77966309 21.4911499 74.0222168 C20.41370846 71.68010903 19.33219286 69.33991566 18.25 67 C16.83623399 63.93855866 15.42459547 60.87615144 14.015625 57.8125 C13.67406372 57.06983887 13.33250244 56.32717773 12.98059082 55.56201172 C9.86497083 48.75899549 6.9022292 41.89660579 4 35 C3.67 35 3.34 35 3 35 Z " fill="#74C045" transform="translate(831,263)"/>
<path d="M0 0 C28.71 0 57.42 0 87 0 C87 4.95 87 9.9 87 15 C63.57 15 40.14 15 16 15 C16 31.17 16 47.34 16 64 C39.43 64 62.86 64 87 64 C87 68.95 87 73.9 87 79 C63.57 79 40.14 79 16 79 C16 99.46 16 119.92 16 141 C39.43 141 62.86 141 87 141 C87 145.95 87 150.9 87 156 C58.29 156 29.58 156 0 156 C0 104.52 0 53.04 0 0 Z " fill="#74C045" transform="translate(1155,263)"/>
<path d="M0 0 C10.56 0 21.12 0 32 0 C32 52.14 32 104.28 32 158 C21.44 158 10.88 158 0 158 C0 105.86 0 53.72 0 0 Z " fill="#050708" transform="translate(821,87)"/>
<path d="M0 0 C10.56 0 21.12 0 32 0 C32 52.14 32 104.28 32 158 C21.44 158 10.88 158 0 158 C0 105.86 0 53.72 0 0 Z " fill="#050708" transform="translate(591,87)"/>
<path d="M0 0 C6.47999923 -1.79249155 12.69804254 -2.92726161 19 0 C25.61360125 6.62058942 29.65094007 15.74810697 33.89746094 24.00390625 C36.92577182 29.84246974 40.35503291 35.44031747 43.75869751 41.06503296 C47.93322579 47.98744076 52.0164331 54.96604433 56 62 C60.69397142 55.20516269 64.85779527 48.1766356 68.9375 41 C74.94429259 30.50286888 81.08847437 20.09964131 87.33959961 9.74609375 C87.93651611 8.75738281 88.53343262 7.76867187 89.1484375 6.75 C89.67614746 5.87859375 90.20385742 5.0071875 90.74755859 4.109375 C92.00741762 2.04524894 92.00741762 2.04524894 93 0 C99.27 0 105.54 0 112 0 C110.67125471 3.32186321 109.4841726 6.09098875 107.7421875 9.1328125 C107.28996826 9.92453857 106.83774902 10.71626465 106.37182617 11.53198242 C105.87787354 12.38767822 105.3839209 13.24337402 104.875 14.125 C104.35075439 15.03805908 103.82650879 15.95111816 103.28637695 16.8918457 C98.32542222 25.50020099 93.25112299 34.04082091 88.16918945 42.578125 C82.55983317 52.01470183 77.06105289 61.51203819 71.6081543 71.03979492 C71.01687744 72.07080322 70.42560059 73.10181152 69.81640625 74.1640625 C69.29506104 75.07623535 68.77371582 75.9884082 68.23657227 76.92822266 C67 79 67 79 66 80 C65.87513046 82.37201547 65.81399948 84.71640343 65.79467773 87.09008789 C65.78477814 87.83150528 65.77487854 88.57292267 65.76467896 89.33680725 C65.73297534 91.79872393 65.70827174 94.26065993 65.68359375 96.72265625 C65.66303186 98.42517105 65.6420356 100.12768065 65.62062073 101.83018494 C65.56532101 106.31987309 65.51594672 110.80960792 65.46777344 115.29937744 C65.41761594 119.87736178 65.36189992 124.45527803 65.30664062 129.03320312 C65.19896247 138.02207951 65.0980525 147.01101346 65 156 C59.72 156 54.44 156 49 156 C49.08809937 152.86528198 49.08809937 152.86528198 49.17797852 149.66723633 C49.36259233 142.63100063 49.44819026 135.5958012 49.48965549 128.5573473 C49.51757218 124.30375407 49.57511716 120.05561597 49.7097168 115.80395508 C50.43912476 91.83858484 47.35239215 75.89535078 33.26907349 56.24752808 C29.31047235 50.58192562 25.85074337 44.62192498 22.3125 38.6875 C20.91901517 36.39017381 19.51809139 34.09750699 18.1171875 31.8046875 C13.99192665 25.01140588 9.94673664 18.17479012 5.9375 11.3125 C5.33526611 10.28406982 4.73303223 9.25563965 4.11254883 8.19604492 C3.56880615 7.26123291 3.02506348 6.3264209 2.46484375 5.36328125 C1.986521 4.54126221 1.50819824 3.71924316 1.01538086 2.87231445 C0 1 0 1 0 0 Z " fill="#74C045" transform="translate(1646,263)"/>
</svg>
